# xmcd
#
# Track frame offsets:
#	150
#	17442
#	36408
#	52265
#	69676
#	95287
#
# Disc length: 1426 seconds
# Revision: 0
# Processed by: cddbd v1.5.2PL0 Copyright (c) Steve Scherf et al.
# Submitted via: dBpowerAMP V12.0
#
DISCID=4d059006
DTITLE=Taylor Hack - A Country Girls World
DYEAR=2015
DGENRE=Country
TTITLE0=Suds in a Bucket
TTITLE1=Chicken Fried
TTITLE2=She's a Wildflower
TTITLE3=Blown Away
TTITLE4=Life Flew By
TTITLE5=Paterson River
EXTD=
EXTT0=
EXTT1=
EXTT2=
EXTT3=
EXTT4=
EXTT5=
PLAYORDER=
